<svg xmlns="http://www.w3.org/2000/svg" viewBox="0 0 128 128">
  <defs>
    <radialGradient id="logo-glow" cx="50%" cy="35%" r="65%">
      <stop offset="0%" stop-color="#7fe9ff" stop-opacity="0.9" />
      <stop offset="45%" stop-color="#2db5ff" stop-opacity="0.95" />
      <stop offset="100%" stop-color="#0052d4" />
    </radialGradient>
    <linearGradient id="pin-gradient" x1="0%" y1="0%" x2="100%" y2="100%">
      <stop offset="0%" stop-color="#ffffff" stop-opacity="0.95" />
      <stop offset="100%" stop-color="#c7e6ff" stop-opacity="0.9" />
    </linearGradient>
    <linearGradient id="core-gradient" x1="30%" y1="25%" x2="70%" y2="80%">
      <stop offset="0%" stop-color="#0b7cff" />
      <stop offset="100%" stop-color="#16d9ff" />
    </linearGradient>
    <clipPath id="planet-clip">
      <circle cx="64" cy="64" r="52" />
    </clipPath>
  </defs>

  <g filter="url(#planet-shadow)"></g>

  <circle cx="64" cy="64" r="52" fill="url(#logo-glow)" />

  <g clip-path="url(#planet-clip)" opacity="0.35" stroke="#ffffff">
    <path d="M18 64h92" stroke-width="2" stroke-linecap="round" />
    <path d="M64 18v92" stroke-width="2" stroke-linecap="round" />
    <path d="M18 46h92" stroke-width="1.4" stroke-linecap="round" />
    <path d="M18 82h92" stroke-width="1.4" stroke-linecap="round" />
    <path d="M46 18v92" stroke-width="1.4" stroke-linecap="round" />
    <path d="M82 18v92" stroke-width="1.4" stroke-linecap="round" />
    <path d="M14 74c15 7 32 11 50 11s35-4 50-11" stroke-width="1.4" stroke-linecap="round" />
    <path d="M14 54c15-7 32-11 50-11s35 4 50 11" stroke-width="1.4" stroke-linecap="round" />
  </g>

  <path d="M64 20c-19.33 0-35 15.74-35 35.2 0 12.2 6.68 26.18 19.94 41.78 4.85 5.68 9.78 10.6 14.7 14.76 2.45 2.08 6.21 2.08 8.66 0 4.92-4.16 9.85-9.08 14.7-14.76C92.32 81.38 99 67.4 99 55.2 99 35.74 83.33 20 64 20z" fill="url(#pin-gradient)" stroke="#ffffff" stroke-opacity="0.5" stroke-width="1.2" />

  <circle cx="64" cy="55" r="14" fill="url(#core-gradient)" stroke="#ffffff" stroke-width="1.2" />

  <path d="M64 32c-8.5 0-15.4 6.9-15.4 15.4 0 4.3 1.72 8.42 4.78 11.48l3.12 3.12a4.6 4.6 0 006.52 0l3.12-3.12A16.2 16.2 0 0079.4 47.4C79.4 38.9 72.5 32 64 32z" fill="#ffffff" fill-opacity="0.2" />

  <path d="M52.2 94.8C56.6 99.5 60.5 103.1 64 105.8c3.5-2.7 7.42-6.3 11.8-10.98" stroke="#0b7cff" stroke-width="2" stroke-linecap="round" opacity="0.8" />

  <path d="M64 15a49 49 0 0131.6 11.3" stroke="#79d8ff" stroke-width="3" stroke-linecap="round" opacity="0.6" />

  <path d="M36 106a49.8 49.8 0 0028 8.5 49.8 49.8 0 0028-8.5" stroke="#032875" stroke-width="2.4" stroke-linecap="round" opacity="0.4" />

  <circle cx="64" cy="55" r="6" fill="#ffffff" opacity="0.85" />
  <circle cx="64" cy="55" r="3" fill="#0b7cff" opacity="0.95" />

  <path d="M64 76c-6.4 0-11.6-5.2-11.6-11.6" stroke="#0b7cff" stroke-width="2" stroke-linecap="round" opacity="0.45" />

  <path d="M86 44a7 7 0 01-7 7" stroke="#ffffff" stroke-width="2" stroke-linecap="round" opacity="0.5" />
</svg>
